<svg width="240" height="82" viewBox="0 0 240 82" fill="none" xmlns="http://www.w3.org/2000/svg">
    <path d="M112.71 53.7349C110.964 53.7349 109.392 53.4356 107.996 52.8369C106.599 52.2133 105.501 51.3403 104.703 50.2178C103.905 49.0953 103.506 47.7858 103.506 46.2891H108.07C108.17 47.4116 108.607 48.3345 109.38 49.0579C110.178 49.7813 111.288 50.143 112.71 50.143C114.182 50.143 115.329 49.7938 116.152 49.0953C116.975 48.3719 117.387 47.449 117.387 46.3265C117.387 45.4535 117.125 44.7426 116.601 44.1938C116.102 43.645 115.466 43.221 114.693 42.9217C113.945 42.6223 112.897 42.2981 111.55 41.9488C109.854 41.4998 108.469 41.0508 107.397 40.6019C106.349 40.1279 105.451 39.4045 104.703 38.4317C103.955 37.4589 103.58 36.1618 103.58 34.5404C103.58 33.0438 103.955 31.7342 104.703 30.6117C105.451 29.4893 106.499 28.6287 107.846 28.03C109.193 27.4314 110.752 27.132 112.523 27.132C115.042 27.132 117.1 27.7681 118.697 29.0403C120.318 30.2875 121.216 32.0086 121.391 34.2037H116.676C116.601 33.2558 116.152 32.4451 115.329 31.7716C114.506 31.0981 113.421 30.7614 112.074 30.7614C110.852 30.7614 109.854 31.0732 109.081 31.6968C108.307 32.3204 107.921 33.2184 107.921 34.3908C107.921 35.189 108.158 35.85 108.632 36.3738C109.13 36.8727 109.754 37.2718 110.502 37.5711C111.251 37.8705 112.273 38.1947 113.571 38.544C115.292 39.0179 116.689 39.4918 117.761 39.9658C118.859 40.4397 119.782 41.1756 120.53 42.1733C121.303 43.1461 121.69 44.4557 121.69 46.102C121.69 47.4241 121.328 48.6713 120.605 49.8436C119.906 51.016 118.871 51.9639 117.499 52.6873C116.152 53.3857 114.556 53.7349 112.71 53.7349ZM131.699 36.3364V47.7483C131.699 48.5216 131.874 49.0828 132.223 49.4321C132.597 49.7563 133.221 49.9185 134.094 49.9185H136.713V53.473H133.346C131.425 53.473 129.953 53.024 128.93 52.126C127.908 51.228 127.396 49.7688 127.396 47.7483V36.3364H124.964V32.8567H127.396V27.7307H131.699V32.8567H136.713V36.3364H131.699ZM139.223 43.0713C139.223 41.001 139.647 39.1676 140.495 37.5711C141.368 35.9747 142.54 34.74 144.012 33.8669C145.508 32.969 147.155 32.52 148.951 32.52C150.572 32.52 151.981 32.8442 153.179 33.4928C154.401 34.1164 155.374 34.9021 156.097 35.85V32.8567H160.4V53.473H156.097V50.4049C155.374 51.3777 154.389 52.1884 153.141 52.8369C151.894 53.4855 150.472 53.8098 148.876 53.8098C147.105 53.8098 145.483 53.3608 144.012 52.4628C142.54 51.5398 141.368 50.2677 140.495 48.6463C139.647 47 139.223 45.1417 139.223 43.0713ZM156.097 43.1461C156.097 41.7243 155.798 40.4896 155.199 39.442C154.625 38.3943 153.865 37.5961 152.917 37.0473C151.969 36.4985 150.946 36.2242 149.849 36.2242C148.751 36.2242 147.728 36.4985 146.781 37.0473C145.833 37.5711 145.059 38.3569 144.461 39.4045C143.887 40.4272 143.6 41.6495 143.6 43.0713C143.6 44.4931 143.887 45.7403 144.461 46.8129C145.059 47.8855 145.833 48.7087 146.781 49.2824C147.753 49.8312 148.776 50.1056 149.849 50.1056C150.946 50.1056 151.969 49.8312 152.917 49.2824C153.865 48.7336 154.625 47.9354 155.199 46.8878C155.798 45.8152 156.097 44.568 156.097 43.1461ZM173.486 53.8098C171.864 53.8098 170.405 53.5229 169.108 52.9492C167.836 52.3505 166.826 51.5523 166.077 50.5545C165.329 49.5318 164.93 48.3969 164.88 47.1497H169.295C169.37 48.0227 169.782 48.7586 170.53 49.3572C171.303 49.9309 172.264 50.2178 173.411 50.2178C174.608 50.2178 175.531 49.9933 176.18 49.5443C176.853 49.0704 177.19 48.4717 177.19 47.7483C177.19 46.9751 176.816 46.4014 176.067 46.0272C175.344 45.653 174.184 45.2415 172.588 44.7925C171.041 44.3684 169.782 43.9568 168.809 43.5577C167.836 43.1586 166.988 42.5475 166.264 41.7243C165.566 40.9012 165.217 39.8161 165.217 38.4691C165.217 37.3716 165.541 36.3738 166.19 35.4758C166.838 34.5529 167.761 33.8295 168.958 33.3057C170.181 32.7819 171.578 32.52 173.149 32.52C175.494 32.52 177.377 33.1186 178.799 34.3159C180.246 35.4883 181.019 37.0972 181.119 39.1426H176.853C176.778 38.2197 176.404 37.4838 175.731 36.9351C175.057 36.3863 174.147 36.1119 172.999 36.1119C171.877 36.1119 171.016 36.3239 170.418 36.748C169.819 37.172 169.52 37.7333 169.52 38.4317C169.52 38.9805 169.719 39.442 170.118 39.8161C170.517 40.1903 171.004 40.4896 171.578 40.7141C172.151 40.9137 172.999 41.1756 174.122 41.4998C175.618 41.8989 176.841 42.3105 177.789 42.7346C178.761 43.1337 179.597 43.7323 180.296 44.5305C180.994 45.3288 181.356 46.3889 181.381 47.7109C181.381 48.8833 181.056 49.9309 180.408 50.8539C179.759 51.7768 178.836 52.5002 177.639 53.024C176.467 53.5478 175.082 53.8098 173.486 53.8098ZM196.653 32.52C198.225 32.52 199.621 32.8567 200.844 33.5302C202.091 34.2037 203.064 35.2015 203.762 36.5235C204.486 37.8455 204.847 39.442 204.847 41.3128V53.473H200.619V41.9488C200.619 40.103 200.158 38.6936 199.235 37.7208C198.312 36.723 197.052 36.2242 195.456 36.2242C193.859 36.2242 192.587 36.723 191.639 37.7208C190.716 38.6936 190.255 40.103 190.255 41.9488V53.473H185.989V25.7851H190.255V35.2513C190.978 34.3783 191.889 33.7048 192.986 33.2309C194.109 32.7569 195.331 32.52 196.653 32.52ZM214.553 25.7851V53.473H210.288V25.7851H214.553ZM238.712 32.8567L226.065 63.1638H221.65L225.841 53.1363L217.722 32.8567H222.473L228.273 48.5715L234.297 32.8567H238.712Z" fill="#FA7275"/>
    <rect opacity="0.2" width="74.8323" height="74.8323" rx="37.4161" fill="#FA7275"/>
    <rect x="32.7393" y="31.1801" width="49.8882" height="49.8882" rx="24.9441" fill="#FA7275"/>
</svg>
